<?xml version="1.0" encoding="UTF-8" standalone="no"?>
<!-- Generator: Adobe Illustrator 19.0.0, SVG Export Plug-In . SVG Version: 6.00 Build 0)  -->

<svg
   xmlns:dc="http://purl.org/dc/elements/1.1/"
   xmlns:cc="http://creativecommons.org/ns#"
   xmlns:rdf="http://www.w3.org/1999/02/22-rdf-syntax-ns#"
   xmlns:svg="http://www.w3.org/2000/svg"
   xmlns="http://www.w3.org/2000/svg"
   xmlns:sodipodi="http://sodipodi.sourceforge.net/DTD/sodipodi-0.dtd"
   xmlns:inkscape="http://www.inkscape.org/namespaces/inkscape"
   version="1.1"
   id="Capa_1"
   x="0px"
   y="0px"
   viewBox="0 0 16 16"
   xml:space="preserve"
   sodipodi:docname="Article.svg"
   width="16"
   height="16"
   inkscape:version="0.92.4 (5da689c313, 2019-01-14)"><metadata
   id="metadata7277"><rdf:RDF><cc:Work
       rdf:about=""><dc:format>image/svg+xml</dc:format><dc:type
         rdf:resource="http://purl.org/dc/dcmitype/StillImage" /><dc:title></dc:title></cc:Work></rdf:RDF></metadata><defs
   id="defs7275" /><sodipodi:namedview
   pagecolor="#ffffff"
   bordercolor="#666666"
   borderopacity="1"
   objecttolerance="10"
   gridtolerance="10"
   guidetolerance="10"
   inkscape:pageopacity="0"
   inkscape:pageshadow="2"
   inkscape:window-width="1920"
   inkscape:window-height="1137"
   id="namedview7273"
   showgrid="false"
   inkscape:zoom="29.5"
   inkscape:cx="-1.8474576"
   inkscape:cy="9.528589"
   inkscape:window-x="1912"
   inkscape:window-y="-8"
   inkscape:window-maximized="1"
   inkscape:current-layer="Capa_1" />
<g
   id="g7234"
   transform="matrix(0.02709631,0,0,0.02734375,0.56335154,1)"
   style="fill:#377ab5;fill-opacity:1">
	<g
   id="g7232"
   style="fill:#377ab5;fill-opacity:1">
		<path
   d="M 458.737,422.218 435.872,134.102 C 434.447,115.54 418.749,100.999 400.133,100.999 H 354.97 v -2.03 C 354.97,44.397 310.573,0 256.001,0 201.429,0 157.032,44.397 157.032,98.969 v 2.03 H 111.87 c -18.617,0 -34.316,14.54 -35.736,33.064 L 53.262,422.257 c -1.77,23.075 6.235,46.048 21.961,63.026 C 90.949,502.261 113.242,512 136.385,512 h 239.231 c 23.142,0 45.436,-9.738 61.163,-26.717 15.726,-16.979 23.73,-39.951 21.958,-63.065 z M 187.022,98.969 c 0,-38.035 30.945,-68.979 68.979,-68.979 38.034,0 68.979,30.945 68.979,68.979 v 2.03 H 187.022 Z m 227.754,365.936 c -10.218,11.03 -24.124,17.105 -39.16,17.105 h -239.23 c -15.036,0 -28.942,-6.075 -39.16,-17.105 C 87.009,453.874 82.015,439.542 83.163,424.59 l 22.87,-288.195 c 0.232,-3.032 2.796,-5.406 5.837,-5.406 h 45.162 v 36.935 c 0,8.281 6.714,14.995 14.995,14.995 8.281,0 14.995,-6.714 14.995,-14.995 V 130.989 H 324.98 v 36.935 c 0,8.281 6.714,14.995 14.995,14.995 8.281,0 14.995,-6.714 14.995,-14.995 v -36.935 h 45.163 c 3.04,0 5.604,2.375 5.84,5.446 l 22.865,288.115 c 1.15,14.992 -3.845,29.323 -14.062,40.355 z"
   id="path7230"
   inkscape:connector-curvature="0"
   style="fill:#377ab5;fill-opacity:1" />
	</g>
</g>
<g
   id="g7240"
   transform="matrix(0.02709631,0,0,0.02734375,0.56335154,1)"
   style="fill:#ffffff;fill-opacity:1">
	<g
   id="g7238"
   style="fill:#ffffff;fill-opacity:1">
		<path
   d="m 323.556,254.285 c -5.854,-5.856 -15.349,-5.856 -21.204,0 l -66.956,66.956 -25.746,-25.746 c -5.855,-5.856 -15.35,-5.856 -21.206,0 -5.856,5.856 -5.856,15.35 0,21.206 l 36.349,36.349 c 2.928,2.928 6.766,4.393 10.602,4.393 3.836,0 7.675,-1.464 10.602,-4.393 l 77.558,-77.558 c 5.857,-5.857 5.857,-15.351 10e-4,-21.207 z"
   id="path7236"
   inkscape:connector-curvature="0"
   style="fill:#ffffff;fill-opacity:1" />
	</g>
</g>
<g
   id="g7242"
   transform="translate(0,-496)">
</g>
<g
   id="g7244"
   transform="translate(0,-496)">
</g>
<g
   id="g7246"
   transform="translate(0,-496)">
</g>
<g
   id="g7248"
   transform="translate(0,-496)">
</g>
<g
   id="g7250"
   transform="translate(0,-496)">
</g>
<g
   id="g7252"
   transform="translate(0,-496)">
</g>
<g
   id="g7254"
   transform="translate(0,-496)">
</g>
<g
   id="g7256"
   transform="translate(0,-496)">
</g>
<g
   id="g7258"
   transform="translate(0,-496)">
</g>
<g
   id="g7260"
   transform="translate(0,-496)">
</g>
<g
   id="g7262"
   transform="translate(0,-496)">
</g>
<g
   id="g7264"
   transform="translate(0,-496)">
</g>
<g
   id="g7266"
   transform="translate(0,-496)">
</g>
<g
   id="g7268"
   transform="translate(0,-496)">
</g>
<g
   id="g7270"
   transform="translate(0,-496)">
</g>
<path
   style="opacity:0.6;fill:#377ab5;fill-opacity:1;stroke:#000000;stroke-width:0.00177759;stroke-linecap:round;stroke-linejoin:round;stroke-miterlimit:4;stroke-dasharray:none;stroke-opacity:1;paint-order:markers fill stroke"
   d="M 3.8854076,14.105903 C 3.356189,13.958747 2.9632539,13.531036 2.8644427,12.99458 2.8057879,12.676136 3.4357081,4.6810654 3.5239418,4.6240851 3.5573841,4.6024885 3.8626589,4.5844917 4.2023306,4.584092 l 0.6175847,-7.268e-4 v 0.5953776 c 0,0.5688524 0.0051,0.6005671 0.1144069,0.7118643 0.1653179,0.1683238 0.410267,0.1590662 0.5883311,-0.022235 C 5.658198,5.7303631 5.6588979,5.7267039 5.6588979,5.1565079 V 4.5833652 H 7.4999998 9.341101 v 0.5731421 c 0,0.5701961 6.99e-4,0.5738553 0.136245,0.7118645 0.178064,0.1813015 0.423013,0.1905591 0.588331,0.022235 0.109309,-0.1112972 0.114407,-0.143012 0.114407,-0.7118643 V 4.5833652 l 0.617585,7.268e-4 c 0.339672,3.995e-4 0.645007,0.018435 0.678524,0.040078 0.09012,0.058195 0.717535,8.052501 0.657614,8.379079 -0.08125,0.442776 -0.396224,0.837264 -0.832711,1.042899 -0.209103,0.09852 -0.261726,0.100058 -3.7078764,0.109326 -2.6646421,0.0071 -3.5461776,-0.0046 -3.7078126,-0.04957 z m 3.255678,-3.373618 C 7.21031,10.694863 7.754207,10.16631 8.3497441,9.557709 9.525071,8.356601 9.564868,8.2976708 9.391744,8.0147532 9.276498,7.826421 9.04489,7.766837 8.8457042,7.8742772 8.7720922,7.9139812 8.3141265,8.3530884 7.8280026,8.8500632 L 6.9441413,9.753654 6.5405726,9.35156 C 6.1899315,9.002201 6.1156459,8.9494674 5.974152,8.9494674 c -0.3251952,0 -0.5357831,0.3236996 -0.3913932,0.6016206 0.076508,0.147262 1.0224487,1.111869 1.1714783,1.194595 0.1276082,0.07084 0.238087,0.067 0.3868485,-0.01344 z"
   id="path11385"
   inkscape:connector-curvature="0" /></svg>